<?xml version="1.0" ?><svg style="enable-background:new 0 0 48 48;" version="1.1" viewBox="0 0 48 48" xml:space="preserve" xmlns="http://www.w3.org/2000/svg" xmlns:xlink="http://www.w3.org/1999/xlink"><g id="Padding__x26__Artboard"/><g id="Icons"><g><path d="M24,8.30664C15.34668,8.30664,8.30615,15.34668,8.30615,24S15.34668,39.69336,24,39.69336    S39.69385,32.65332,39.69385,24S32.65332,8.30664,24,8.30664z M22.83545,27.93164h5.54443    c1.22021,0,2.21338,0.99219,2.21338,2.21289s-0.99316,2.21387-2.21338,2.21387h-5.54443    c-2.99316,0-5.42871-2.43457-5.42871-5.42773v-9.07617c0-1.2207,0.99316-2.21387,2.21387-2.21387s2.21387,0.99316,2.21387,2.21387    v1.8584h6.54541c1.22021,0,2.21338,0.99316,2.21338,2.21387s-0.99316,2.21289-2.21338,2.21289h-6.54541v2.79102    C21.83447,27.48242,22.28369,27.93164,22.83545,27.93164z M23.86279,11.40723c0.00977,0.19238-0.13867,0.35742-0.33203,0.36719    c-0.52246,0.02637-1.05029,0.08691-1.56934,0.17969c-0.021,0.00391-0.0415,0.00488-0.06201,0.00488    c-0.1665,0-0.31396-0.11816-0.34424-0.28809c-0.03369-0.19043,0.09277-0.37207,0.2832-0.40625    c0.54785-0.09766,1.10547-0.16113,1.65723-0.18945C23.66504,11.05859,23.85303,11.21289,23.86279,11.40723z M15.24658,14.35059    c1.46387-1.26074,3.27539-2.2207,5.23877-2.77539c0.1875-0.05176,0.37988,0.05664,0.43213,0.24219    s-0.05566,0.37891-0.2417,0.43164c-1.86572,0.52734-3.58545,1.4375-4.97217,2.63281    c-0.06641,0.05664-0.14746,0.08398-0.22852,0.08398c-0.09814,0-0.1958-0.04102-0.26514-0.12109    C15.08398,14.69824,15.1001,14.47754,15.24658,14.35059z" style="fill:#303030;"/></g></g></svg>