<?xml version="1.0" ?><svg style="enable-background:new 0 0 48 48;" version="1.1" viewBox="0 0 48 48" xml:space="preserve" xmlns="http://www.w3.org/2000/svg" xmlns:xlink="http://www.w3.org/1999/xlink"><g id="Padding__x26__Artboard"/><g id="Icons"><g><path d="M24,8.30664C15.34668,8.30664,8.30615,15.34668,8.30615,24S15.34668,39.69336,24,39.69336    S39.69385,32.65332,39.69385,24S32.65332,8.30664,24,8.30664z M34.45068,17.90234    c-0.03174,0.05176-0.76514,1.22852-1.92773,2.09375c-0.01416,0.50391-0.07471,1.95898-0.31299,2.95703    c-0.39209,1.64453-1.45117,4.73145-4.13672,6.93066c-2.51514,2.06055-5.62842,2.76855-7.78711,2.76953    c-0.21533,0-0.4209-0.00781-0.61572-0.02051c-2.0083-0.13867-4.42236-0.88867-6.00732-1.86719    c-0.13867-0.08594-0.19971-0.25586-0.14697-0.41113c0.05273-0.1543,0.20215-0.26562,0.36768-0.23438    c0.03027,0,2.80078,0.27051,5.13672-1.17871c-0.9541-0.2334-2.40332-0.93164-3.25439-3    c-0.04834-0.11719-0.02881-0.25293,0.05127-0.35156c0.07959-0.09961,0.20703-0.14941,0.3335-0.12598    c0.00342,0.00098,0.13721,0.02344,0.35205,0.03516c-1.01367-0.58398-2.21973-1.74121-2.24463-3.94531    c-0.00146-0.12109,0.06055-0.23535,0.16357-0.2998c0.10303-0.06543,0.23291-0.07227,0.34131-0.01758    c0.13672,0.06738,0.41162,0.18555,0.72412,0.2832c-0.85254-1.02148-1.9126-2.9375-0.52295-5.18555    c0.06104-0.09863,0.16602-0.16016,0.28125-0.16602c0.1333,0.00098,0.22607,0.0459,0.2959,0.13867    c0.02979,0.03906,2.93604,3.80273,7.87646,4.16895c-0.41016-1.95605,0.96143-3.68359,2.52441-4.5166    c1.62012-0.86133,3.82031-0.95703,5.18506,0.71582c0.33105-0.05566,1.14551-0.24902,2.36523-0.90625    c0.12451-0.06641,0.27881-0.05371,0.38867,0.03906c0.10986,0.08984,0.15381,0.23828,0.11133,0.37402    c-0.01318,0.04297-0.25439,0.79004-0.93164,1.55273c0.28662-0.07617,0.60986-0.18359,0.94922-0.33496    c0.14014-0.06055,0.3042-0.02734,0.40625,0.08887C34.51758,17.60352,34.53125,17.77148,34.45068,17.90234z M23.98096,11.20996    c0.16992-0.0127,0.35693,0.1377,0.36719,0.33203c0.00977,0.19238-0.13867,0.35742-0.33203,0.36719    c-0.5166,0.02637-1.04492,0.08691-1.56934,0.18066c-0.021,0.00391-0.0415,0.00488-0.06201,0.00488    c-0.1665,0-0.31396-0.11914-0.34424-0.28809c-0.03369-0.19043,0.09326-0.37207,0.2832-0.40625    C22.87695,11.30176,23.43457,11.23828,23.98096,11.20996z M21.16162,12.38672c-1.86475,0.52832-3.5835,1.43945-4.97021,2.63477    c-0.06592,0.05762-0.14746,0.08496-0.22852,0.08496c-0.09814,0-0.1958-0.04102-0.26514-0.12109    c-0.12598-0.14648-0.10986-0.36719,0.03662-0.49316c1.46338-1.2627,3.27393-2.22363,5.23682-2.7793    c0.1875-0.0498,0.37939,0.05664,0.43213,0.24121C21.45605,12.14062,21.34766,12.33398,21.16162,12.38672z" style="fill:#303030;"/></g></g></svg>